<svg fill="none" height="16" viewBox="0 0 16 16" width="16" xmlns="http://www.w3.org/2000/svg"><g fill="#212121"><path d="m1 5c0-1.10457.89543-2 2-2h10c1.1046 0 2 .89543 2 2v5c0 .8062-.477 1.501-1.1642 1.8175-.0702-.1373-.1622-.2652-.2751-.3781l-.4459-.4459c.4982-.0569.8852-.48.8852-.9935v-5c0-.55228-.4477-1-1-1h-10c-.55228 0-1 .44772-1 1v5c0 .5523.44772 1 1 1h4v1h-4c-1.10457 0-2-.8954-2-2z"/><path d="m8.85355 8.14645c-.143-.143-.35805-.18578-.54489-.10839s-.30866.25971-.30866.46194v6c0 .2152.13771.4063.34189.4743.20417.0681.42898-.0021.55811-.1743l1.35-1.8h2.25c.2022 0 .3845-.1218.4619-.3087.0774-.1868.0347-.4019-.1083-.5449zm.14645 4.85355v-3.29289l2.2929 2.29289h-1.2929c-.15738 0-.30557.0741-.4.2z"/></g></svg>